<svg xmlns="http://www.w3.org/2000/svg" viewBox="0 0 24 24" fill="currentColor" aria-hidden="true" role="img">
  <title>Settings</title>
  <path d="M19.14,12.94c.04-.3.06-.61.06-.94,0-.32-.02-.64-.06-.94l2.03-1.58c.18-.14.23-.4.12-.61l-1.92-3.32c-.12-.21-.34-.3-.6-.23l-2.47,1c-.16-.59-.51-1.1-.94-1.41l-.89-2.51c-.11-.31-.36-.5-.65-.5h-3.84c-.29,0-.54,.19-.65,.5l-.89,2.51c-.43,.31-.77,.82-.94,1.41l-2.47-1c-.26-.07-.48,.02-.6,.23l-1.92,3.32c-.11,.21-.06,.47,.12,.61l2.03,1.58c-.04,.3-.06,.61-.06,.94,0,.32,.02,.64,.06,.94l-2.03,1.58c-.18,.14-.24,.4-.12,.61l1.92,3.32c.12,.21,.34,.3,.6,.23l2.47-1c.16,.59,.51,1.1,.94,1.41l.89,2.51c.11,.31,.36,.5,.65,.5h3.84c.29,0,.54-.19,.65-.5l.89-2.51c.43-.31,.77-.82,.94-1.41l2.47,1c.26,.07,.48-.02,.6-.23l1.92-3.32c.12-.21,.07-.47-.12-.61l-2.01-1.58zM12,15.75c-2.07,0-3.75-1.68-3.75-3.75s1.68-3.75,3.75-3.75,3.75,1.68,3.75,3.75-1.68,3.75-3.75,3.75z"/>
</svg>